<?xml version="1.0" standalone="no"?>
<!DOCTYPE svg PUBLIC "-//W3C//DTD SVG 20010904//EN"
 "http://www.w3.org/TR/2001/REC-SVG-20010904/DTD/svg10.dtd">
<svg version="1.0" xmlns="http://www.w3.org/2000/svg"
 width="86.000000pt" height="86.000000pt" viewBox="0 0 86.000000 86.000000"
 preserveAspectRatio="xMidYMid meet">
<metadata>
Created by potrace 1.14, written by Peter Selinger 2001-2017
</metadata>
<g transform="translate(0.000000,86.000000) scale(0.100000,-0.100000)"
fill="#000000" stroke="none">
<path d="M478 845 c-40 -15 -88 -44 -88 -54 0 -3 20 -14 44 -24 34 -14 49 -16
65 -8 11 6 42 11 69 11 57 0 104 -27 139 -79 22 -32 23 -44 23 -190 0 -140 -2
-159 -21 -190 -43 -71 -108 -100 -180 -81 -98 27 -131 80 -133 216 -2 100 -9
116 -57 133 l-29 10 -1 -47 c-3 -206 6 -252 63 -317 53 -61 115 -89 194 -88
98 1 170 44 222 133 26 43 27 51 29 216 3 198 -5 230 -74 299 -68 69 -175 93
-265 60z"/>
<path d="M263 729 c-78 -14 -138 -58 -179 -131 -29 -53 -29 -53 -29 -228 0
-160 2 -178 22 -216 46 -86 120 -135 214 -142 63 -5 104 6 163 42 l39 24 -47
21 c-32 14 -53 18 -64 12 -50 -26 -140 -14 -184 26 -45 40 -58 89 -58 231 0
137 10 183 48 225 39 43 122 64 172 43 89 -37 117 -86 118 -206 0 -47 1 -91 1
-98 1 -16 60 -52 75 -46 20 8 13 240 -8 289 -46 109 -166 174 -283 154z"/>
</g>
</svg>
